<?xml version="1.0" encoding="UTF-8"?>
<svg id="Camada_1" data-name="Camada 1" xmlns="http://www.w3.org/2000/svg" viewBox="0 0 833 239">
  <defs>
    <style>
      .cls-1 {
        fill: #ef403d;
      }

      .cls-2 {
        fill: #414142;
      }
    </style>
  </defs>
  <g id="TrackFlix_Live_-_Black_and_Red" data-name="TrackFlix Live - Black and Red">
    <g>
      <path class="cls-1" d="M628.24,101.8v67.96h24.89v5.16h-30.28v-73.11h5.38Z"/>
      <path class="cls-1" d="M668.05,101.8v9.31h-5.27v-9.31h5.27ZM668.05,120.86v54.05h-5.16v-54.05h5.16Z"/>
      <path class="cls-1" d="M700.01,174.91h-5.83l-16.37-56.29h5.72l13.46,50.69h.22l13.68-50.69h5.72l-16.6,56.29Z"/>
      <path class="cls-1" d="M728.04,145.76v12.22c0,8.52,4.04,13.34,11.1,13.34,5.72,0,9.08-2.92,11.44-10.88l3.92,1.35c-2.36,9.64-7.51,14.02-15.59,14.02-10.54,0-16.04-7.29-16.04-17.72v-22.76c0-10.54,5.83-17.61,15.81-17.61s15.59,7.4,15.59,17.83v10.2h-26.24ZM728.04,141.72h21.53v-6.62c0-8.3-3.92-13.01-10.76-13.01-7.29,0-10.77,4.93-10.77,13.01v6.62Z"/>
    </g>
    <g>
      <path class="cls-2" d="M95.19,85.89h-30.63v-14.94h76.96v14.94h-30.63v88.24h-15.7v-88.24Z"/>
      <path class="cls-2" d="M156.45,100.98h10.52v14.48h-8.84c-6.86,0-11.58,3.81-11.58,12.65v46.03h-15.24v-47.09c0-15.85,8.99-26.06,25.15-26.06Z"/>
      <path class="cls-2" d="M169.1,136.34c0-21.95,16.31-37.03,37.49-37.03s37.34,14.63,37.34,38.41v36.42h-15.24v-35.97c0-15.7-9.6-24.23-22.25-24.23s-21.95,8.99-21.95,22.25,8.69,23.47,25.3,23.47h9.45l-4.57,14.48h-5.94c-24.08,0-39.62-16.61-39.62-37.8Z"/>
      <path class="cls-2" d="M253.53,137.55c0-20.42,15.24-36.58,38.71-36.58h9.75v14.48h-9.6c-14.48,0-23.47,9.6-23.47,22.1s8.99,22.1,23.47,22.1h11.43l-4.57,14.48h-7.01c-23.47,0-38.71-15.85-38.71-36.58Z"/>
      <path class="cls-2" d="M328.82,139.23v34.9h-15.09v-103.18h15.09v63.71l29.26-33.68h18.44l-31.09,35.51,32.16,37.64h-18.9l-29.87-34.9Z"/>
      <path class="cls-1" d="M387.64,70.95h62.18v14.94h-46.48v31.09h44.04v14.78h-44.04v42.37h-15.7v-103.18Z"/>
      <path class="cls-1" d="M460.95,70.95h15.24v103.18h-15.24v-103.18Z"/>
      <path class="cls-1" d="M498.13,73.7c5.18,0,8.84,3.66,8.84,8.69s-3.66,8.69-8.84,8.69-8.99-3.66-8.99-8.69,3.81-8.69,8.99-8.69ZM490.51,100.98h15.24v73.15h-15.24v-73.15Z"/>
      <path class="cls-1" d="M541.56,137.71l-27.74-36.73h17.68l19.81,26.37,19.66-26.37h17.37l-27.74,36.58,28.04,36.58h-17.53l-20.12-26.06-19.96,26.06h-17.22l27.74-36.42Z"/>
    </g>
  </g>
</svg>